<?xml version="1.0" encoding="UTF-8" standalone="no"?>
<!-- Created with Inkscape (http://www.inkscape.org/) -->

<svg
   xmlns:dc="http://purl.org/dc/elements/1.1/"
   xmlns:cc="http://creativecommons.org/ns#"
   xmlns:rdf="http://www.w3.org/1999/02/22-rdf-syntax-ns#"
   xmlns:svg="http://www.w3.org/2000/svg"
   xmlns="http://www.w3.org/2000/svg"
   xmlns:sodipodi="http://sodipodi.sourceforge.net/DTD/sodipodi-0.dtd"
   xmlns:inkscape="http://www.inkscape.org/namespaces/inkscape"
   width="564.55298mm"
   height="317.582mm"
   viewBox="0 0 564.55301 317.582"
   version="1.1"
   id="svg8"
   inkscape:version="0.92.2 5c3e80d, 2017-08-06"
   sodipodi:docname="header.svg">
  <defs
     id="defs2" />
  <sodipodi:namedview
     id="base"
     pagecolor="#ffffff"
     bordercolor="#666666"
     borderopacity="1.0"
     inkscape:pageopacity="0.0"
     inkscape:pageshadow="2"
     inkscape:zoom="0.98994949"
     inkscape:cx="969.94017"
     inkscape:cy="505.65098"
     inkscape:document-units="mm"
     inkscape:current-layer="layer1"
     showgrid="false"
     borderlayer="true"
     inkscape:window-width="3200"
     inkscape:window-height="1765"
     inkscape:window-x="0"
     inkscape:window-y="33"
     inkscape:window-maximized="1" />
  <metadata
     id="metadata5">
    <rdf:RDF>
      <cc:Work
         rdf:about="">
        <dc:format>image/svg+xml</dc:format>
        <dc:type
           rdf:resource="http://purl.org/dc/dcmitype/StillImage" />
        <dc:title></dc:title>
      </cc:Work>
    </rdf:RDF>
  </metadata>
  <g
     inkscape:label="Layer 1"
     inkscape:groupmode="layer"
     id="layer1"
     transform="translate(0,20.582)">
    <g
       id="g893"
       transform="translate(0.36085149,-97.5363)">
      <path
         style="fill:#d6d6d6;stroke-width:0.35277775"
         d="m -0.2519604,235.76786 v -158.75 H 281.97024 564.19244 v 158.75 158.75 H 281.97024 -0.2519604 Z"
         id="path909"
         inkscape:connector-curvature="0" />
      <path
         style="fill:#c0c0c0;stroke-width:0.35277775"
         d="m -0.2519604,235.76786 v -158.75 C 175.89192,77.05407 352.03609,76.916868 528.17972,77.158827 466.33331,94.977737 404.17477,111.77386 342.37782,129.7332 c 21.49639,79.65701 44.63515,159.01059 66.65294,238.58229 2.89399,12.50679 22.48199,67.39193 0.16606,61.33641 -133.80987,0.28295 -267.62049,0.0908 -401.4306946,0.14554 z"
         id="path907"
         inkscape:connector-curvature="0"
         sodipodi:nodetypes="cccccccc" />
      <path
         style="fill:#bdbdbd;stroke-width:0.35277775"
         d="m -0.2519604,235.76786 v -158.75 H 226.0439 C 332.73255,65.366153 279.90806,394.28541 172.58529,394.51787 H -0.2519604 Z"
         id="path905"
         inkscape:connector-curvature="0"
         sodipodi:nodetypes="cccccc" />
      <path
         style="fill:#aaaaaa;stroke-width:0.35277775"
         d="m -0.2519604,235.76813 c 0,-52.91676 0,-105.83351 0,-158.75027 150.6111404,0.04908 301.2229204,-0.13704 451.8335404,0.192329 -64.86134,23.678401 -130.0897,46.425141 -194.84226,70.375041 29.12915,82.17748 59.34288,164.01817 88.37814,246.23414 -76.65064,1.42573 -153.41501,0.42244 -230.11683,0.6981 -38.417529,2.3e-4 -76.83506,4.5e-4 -115.2525904,6.7e-4 0,-52.91667 0,-105.83334 0,-158.75001 z"
         id="path903"
         inkscape:connector-curvature="0" />
      <path
         style="fill:#999999;stroke-width:0.35277775"
         d="M -0.2519604,235.77187 V 77.007444 c 123.2958204,0.02285 246.5916504,0.04569 369.8874704,0.06854 -65.9212,29.654626 -132.335,58.339116 -198.03487,88.420616 27.60003,62.80927 55.97971,125.61946 83.78108,188.47291 0,0 26.46597,57.08422 21.98782,65.35118 -90.04334,0.55597 -187.575723,-24.9126 -277.6215004,-24.78443 z"
         id="path901"
         inkscape:connector-curvature="0"
         sodipodi:nodetypes="cccccccc" />
      <path
         style="fill:#838383;stroke-width:0.35277775"
         d="M -0.2519604,235.76578 V 77.013702 l 141.7065904,0.0063 c 84.87877,0.0038 141.57388,0.134736 141.37568,0.326549 -0.37856,0.366352 -11.69822,6.556647 -19.55729,10.69514 -1.84326,0.970641 -4.38326,2.325499 -5.64445,3.010795 -2.1026,1.142508 -8.94091,4.829606 -13.22916,7.132942 -0.97014,0.521087 -3.82764,2.024162 -6.35,3.340152 -2.52236,1.316 -5.48,2.92825 -6.57254,3.58278 -1.09253,0.65452 -2.07901,1.19005 -2.19217,1.19005 -0.11316,0 -2.79115,1.40524 -5.95108,3.12277 -3.15992,1.71752 -7.80907,4.20486 -10.33143,5.52741 -2.52236,1.32255 -5.17827,2.7748 -5.90202,3.22723 -0.72375,0.45242 -1.38736,0.82259 -1.47469,0.82259 -0.0873,0 -3.06705,1.56654 -6.62159,3.48122 -3.55455,1.91467 -11.93968,6.41891 -18.63364,10.00941 -14.44459,7.7478 -16.5518,8.88047 -18.87361,10.14498 -0.97014,0.52835 -2.84288,1.53622 -4.16163,2.23969 -1.31876,0.70348 -4.81126,2.57248 -7.76111,4.15333 -2.94986,1.58085 -7.74462,4.14728 -10.65504,5.70318 -2.91041,1.5559 -8.14916,4.37016 -11.64166,6.25392 -10.55824,5.69483 -22.1289,11.87189 -23.8125,12.71244 -0.87313,0.43591 -2.30188,1.22109 -3.175,1.74483 -0.873127,0.52375 -4.412754,2.44412 -7.865845,4.26751 -5.904759,3.11797 -6.265467,3.36654 -6.06196,4.17737 0.11901,0.47418 0.498846,1.26869 0.844074,1.7656 0.345232,0.4969 1.108879,1.86193 1.696998,3.0334 1.238296,2.46654 4.123126,7.82603 11.386143,21.15339 2.85496,5.23875 6.58673,12.14438 8.29282,15.34584 1.70609,3.20146 5.19806,9.71021 7.75994,14.46389 2.56187,4.75368 5.49744,10.23055 6.52349,12.17083 1.02606,1.94028 3.2719,6.09979 4.99078,9.24336 1.71887,3.14356 3.12522,5.80578 3.12522,5.91603 0,0.11026 0.37107,0.79262 0.8246,1.51637 0.45354,0.72375 1.82275,3.22091 3.0427,5.54924 1.21996,2.32833 2.6593,5.02708 3.19854,5.99722 0.53925,0.97014 2.71454,5.01827 4.83398,8.99583 2.11944,3.97757 6.76126,12.62945 10.31515,19.22639 10.07707,18.70564 22.52918,41.87062 38.96413,72.48596 3.79885,7.07658 6.90701,13.06939 6.90701,13.31736 0,0.36489 -19.00233,0.45085 -99.659716,0.45085 H -0.2519604 Z"
         id="path899"
         inkscape:connector-curvature="0"
         sodipodi:nodetypes="ccscsccccscscsccccccsccccccsscccsccccsssscc" />
      <path
         style="fill:#797979;stroke-width:0.35277775"
         d="M -0.09492642,394.13377 C 0.21603838,288.40962 0.1670727,182.68024 -0.36085149,76.954179 64.103169,77.203271 128.58109,77.119671 193.03409,77.557741 186.45137,83.518179 173.908,90.249733 164.94541,96.149442 110.18459,131.13496 55.28704,165.9933 0.55378105,200.98618 41.796018,265.14167 82.920264,329.43216 123.67453,393.9094 c -11.78928,1.53141 -24.747777,-0.39273 -37.025236,0.2328 -18.450986,0.0646 -36.512204,-0.29663 -54.57978,0.36432 -10.716168,-0.1047 -21.469819,0.3029 -32.16444042,-0.37275 z"
         id="path897"
         inkscape:connector-curvature="0" />
      <path
         style="fill:#676767;stroke-width:0.35277775"
         d="M 24.359851,393.05863 C 15.926988,382.41199 7.9494196,371.37848 0.05104266,360.32138 c 0.0046401,-9.2451 -0.56997211,-18.53039 0.0029613,-27.74495 15.62126609,20.42449 31.01168509,41.03521 46.26069909,61.73888 -6.925052,0.35705 -13.869192,0.12693 -20.802761,0.16834 -0.384026,-0.47499 -0.768076,-0.95006 -1.152091,-1.42502 z m 171.425129,-2.44149 c -0.0664,-1.8109 1.54547,2.34715 0,0 z m -1.77399,-3.39002 c -1.08655,-1.59761 1.55216,0.30166 0,0 z M -0.01621608,116.96994 C 0.03105811,103.78142 -0.73433099,90.395933 0.42979297,77.325394 15.603508,77.135141 30.783242,77.118435 45.956524,77.32253 31.257328,91.071394 15.500664,103.95947 0.27845347,117.23453 Z"
         id="path895"
         inkscape:connector-curvature="0" />
    </g>
  </g>
</svg>
